Coordinates
version=1
nRows=4
nColumns=63
inDegrees=yes

Units are S.I. units (second, meters, Newtons, ...)
If the header above contains a line with 'inDegrees', this indicates whether rotational values are in degrees (yes) or radians (no).

endheader
time	pelvis_tilt	pelvis_list	pelvis_rotation	pelvis_tx	pelvis_ty	pelvis_tz	hip_flexion_r	hip_adduction_r	hip_rotation_r	knee_angle_r	knee_angle_r_beta	ankle_angle_r	subtalar_angle_r	mtp_angle_r	hip_flexion_l	hip_adduction_l	hip_rotation_l	knee_angle_l	knee_angle_l_beta	ankle_angle_l	subtalar_angle_l	mtp_angle_l	L5_S1_Flex_Ext	L5_S1_Lat_Bending	L5_S1_axial_rotation	L4_L5_Flex_Ext	L4_L5_Lat_Bending	L4_L5_axial_rotation	L3_L4_Flex_Ext	L3_L4_Lat_Bending	L3_L4_axial_rotation	L2_L3_Flex_Ext	L2_L3_Lat_Bending	L2_L3_axial_rotation	L1_L2_Flex_Ext	L1_L2_Lat_Bending	L1_L2_axial_rotation	L1_T12_Flex_Ext	L1_T12_Lat_Bending	L1_T12_axial_rotation	Abs_r3	Abs_r2	Abs_r1	Abs_t1	Abs_t2	neck_flexion	neck_bending	neck_rotation	arm_flex_r	arm_add_r	arm_rot_r	elbow_flex_r	pro_sup_r	wrist_flex_r	wrist_dev_r	arm_flex_l	arm_add_l	arm_rot_l	elbow_flex_l	pro_sup_l	wrist_flex_l	wrist_dev_l
      5.00000000	     -0.57190337	     -0.08764629	     88.24158501	      0.24006800	      0.90836060	      0.60976110	     -3.33165170	     -0.26621308	     -0.66143372	      4.58339549	      0.07999534	     22.84383329	      7.21474027	      0.00000000	     -3.95389717	     -0.36654478	     -9.92444118	      4.49438895	      0.07844189	     19.98237748	      2.71845438	      0.00000000	      0.13098752	     -0.38320552	      1.17545870	      0.24325691	     -0.50966334	      1.24892486	      0.21519939	     -0.93172590	      1.24892486	      0.14970563	     -0.93172590	      1.02852636	      0.12163501	     -0.78143270	      0.95506019	      0.07484627	     -0.59358535	      0.88159402	      0.93563072	     -4.33489748	      6.53754863	      0.00000000	      0.00000000	     10.35944323	      7.19414281	     -7.12944963	    -14.26317438	    -11.64844061	     22.04496599	    107.91541384	     80.16258226	     20.56633963	     16.55887017	    -11.99067102	    -20.83394740	     20.46477441	    114.90972123	     63.81066082	     10.58008261	     16.00478255
      5.01923077	     -0.38735684	     -0.17636975	     88.06547556	      0.23999808	      0.90829943	      0.60937229	     -3.23403401	     -0.08742778	     -0.57283330	      4.59686786	      0.08023048	     22.72967678	      7.26779591	      0.00000000	     -3.92722818	     -0.51971595	     -9.88530835	      4.36263409	      0.07614233	     20.05740572	      2.44430382	      0.00000000	      0.16580625	     -0.35396377	      1.04763718	      0.30791880	     -0.47077181	      1.11311451	      0.27240310	     -0.86062751	      1.11311451	      0.18949997	     -0.86062751	      0.91668253	      0.15396769	     -0.72180292	      0.85120521	      0.09474169	     -0.54828988	      0.78572789	      1.18433750	     -4.00410896	      5.82664371	      0.00000000	      0.00000000	     11.00178785	      7.12678474	     -6.92128381	    -13.23753919	    -10.63696712	     20.26160374	    100.24714518	     80.86671717	     18.86605831	     16.75968333	    -12.33808036	    -21.26649690	     20.40013924	    108.78379294	     63.91962713	      9.53533974	     16.01900744
      5.03846154	     -0.37595638	     -0.13388369	     88.72379642	      0.23912031	      0.90842502	      0.60914332	     -3.41128100	     -0.02214086	     -0.57536454	      4.50481655	      0.07862388	     22.61866555	      6.53375716	      0.00000000	     -3.92901857	     -0.50194587	     -7.72868661	      4.30040740	      0.07505627	     19.86027546	      0.35174014	      0.00000000	      0.18538620	     -0.33735727	      0.87956120	      0.34428071	     -0.44868517	      0.93453377	      0.30457099	     -0.82025046	      0.93453377	      0.21187789	     -0.82025046	      0.76961605	      0.17214962	     -0.68793894	      0.71464347	      0.10592967	     -0.52256641	      0.65967090	      1.32419508	     -3.81625289	      4.89185551	      0.00000000	      0.00000000	     10.90840303	      7.15289924	     -5.85231359	    -11.86847860	     -9.82085541	     19.28893257	     92.02366955	     82.78989637	     13.54524653	     12.85635380	    -11.07378652	    -22.48397145	     22.92301910	    101.63346771	     63.46640293	      6.24008514	     10.94123645
      5.05769231	     -0.30732039	     -0.09477981	     89.13913833	      0.23847770	      0.90834432	      0.60959736	     -3.46864237	      0.08398375	     -0.38568357	      4.57037369	      0.07976807	     22.43649066	      5.78515170	      0.00000000	     -3.86248837	     -0.58793253	     -7.01011818	      4.42351495	      0.07720490	     19.85506219	     -0.14612721	      0.00000000	      0.19359184	     -0.31853668	      0.81431042	      0.35951941	     -0.42365378	      0.86520482	      0.31805204	     -0.77449008	      0.86520482	      0.22125612	     -0.77449008	      0.71252161	      0.17976938	     -0.64955999	      0.66162721	      0.11061838	     -0.49341331	      0.61073281	      1.38280717	     -3.60335061	      4.52895024	      0.00000000	      0.00000000	     11.01167404	      7.05596529	     -5.46435775	    -10.26621995	     -8.63156921	     17.61502613	     84.63324054	     82.29517187	      9.90072082	     14.86898953	     -9.49421496	    -22.44066548	     24.26343911	     94.90706243	     64.49678257	      3.90855995	     10.19053966
